<?xml version="1.0" encoding="utf-8"?>
<!-- Generator: Adobe Illustrator 23.0.2, SVG Export Plug-In . SVG Version: 6.00 Build 0)  -->
<svg version="1.1" id="Layer_1" xmlns="http://www.w3.org/2000/svg" xmlns:xlink="http://www.w3.org/1999/xlink" x="0px" y="0px"
	 viewBox="0 0 46.1 98.7" style="enable-background:new 0 0 46.1 98.7;" xml:space="preserve">
<style type="text/css">
	.st0{display:none;fill:#151D18;}
	.st1{fill:#80AA8A;}
	.st2{fill:#719E7B;}
</style>
<rect x="-277.1" y="-80.6" class="st0" width="595.3" height="841.9"/>
<g>
	<rect x="-63.7" y="-37.4" class="st0" width="173.5" height="173.5"/>
	<path class="st1" d="M32.9,19.7h13.2V0H30.9C9.5,0,10,17.3,10,19.9v13H0v19.7h10c0,21.7,0,46.1,0,46.1h19.7c0,0,0-24.8,0-46.1h13.2
		l3.3-19.7H29.6V23C29.6,20.9,30.8,19.7,32.9,19.7z"/>
</g>
<g>
	<rect x="-257.1" y="-37.4" class="st0" width="173.5" height="173.5"/>
	<path id="Twitter_1_" class="st1" d="M-128.1,13.4c-3.5,2.2-7.5,3.7-11.7,4.6c-3.3-3.7-8.1-5.9-13.4-5.9
		c-10.1,0-18.3,8.4-18.3,18.8c0,1.5,0.2,2.9,0.5,4.3c-15.2-0.8-28.8-8.3-37.8-19.7c-1.6,2.8-2.5,6-2.5,9.5c0,6.5,3.2,12.3,8.2,15.7
		c-3-0.1-5.8-0.9-8.3-2.3v0.2c0,9.1,6.3,16.7,14.7,18.4c-1.5,0.4-3.2,0.7-4.8,0.7c-1.2,0-2.3-0.1-3.5-0.3
		c2.3,7.5,9.1,12.9,17.1,13.1c-6.3,5-14.2,8.1-22.8,8.1c-1.5,0-2.9-0.1-4.4-0.3c8.1,5.3,17.8,8.4,28.1,8.4
		c33.8,0,52.2-28.7,52.2-53.5c0-0.8,0-1.6,0-2.4c3.6-2.7,6.7-6,9.1-9.7c-3.3,1.5-6.8,2.5-10.5,3C-132.4,21.5-129.5,17.8-128.1,13.4z
		"/>
</g>
<g>
	<rect x="-225.5" y="298.6" class="st0" width="173.5" height="173.5"/>
	<g>
		<path class="st1" d="M-106.3,385.4c-18.1-9.6-35.3-18.5-53-27.8V413C-140.8,402.9-121.2,393.6-106.3,385.4L-106.3,385.4
			L-106.3,385.4z"/>
		<path class="st2" d="M-106.3,385.4c-18.1-9.6-53-27.8-53-27.8l46.6,31.3C-112.7,388.9-121.2,393.6-106.3,385.4L-106.3,385.4z"/>
	</g>
</g>
</svg>
