<?xml version="1.0" encoding="utf-8"?>
<!-- Generator: Adobe Illustrator 23.0.2, SVG Export Plug-In . SVG Version: 6.00 Build 0)  -->
<svg version="1.1" id="Layer_1" xmlns="http://www.w3.org/2000/svg" xmlns:xlink="http://www.w3.org/1999/xlink" x="0px" y="0px"
	 viewBox="0 0 89.4 74.5" style="enable-background:new 0 0 89.4 74.5;" xml:space="preserve">
<style type="text/css">
	.st0{display:none;fill:#151D18;}
	.st1{fill:#80AA8A;}
	.st2{fill:#719E7B;}
</style>
<rect x="-62" y="-92.7" class="st0" width="595.3" height="841.9"/>
<g>
	<rect x="151.4" y="-49.5" class="st0" width="173.5" height="173.5"/>
	<path class="st1" d="M248,7.7h13.2v-19.7H246c-21.5,0-20.9,17.3-20.9,19.9v13h-10v19.7h10c0,21.7,0,46.1,0,46.1h19.7
		c0,0,0-24.8,0-46.1h13.2l3.3-19.7h-16.5V11C244.7,8.8,245.9,7.7,248,7.7z"/>
</g>
<g>
	<rect x="-42" y="-49.5" class="st0" width="173.5" height="173.5"/>
	<path id="Twitter_1_" class="st1" d="M87,1.4c-3.5,2.2-7.5,3.7-11.7,4.6C72,2.3,67.2,0,61.9,0C51.8,0,43.6,8.4,43.6,18.8
		c0,1.5,0.2,2.9,0.5,4.3C28.8,22.3,15.3,14.8,6.2,3.4c-1.6,2.8-2.5,6-2.5,9.5c0,6.5,3.2,12.3,8.2,15.7c-3-0.1-5.8-0.9-8.3-2.3v0.2
		c0,9.1,6.3,16.7,14.7,18.4c-1.5,0.4-3.2,0.7-4.8,0.7c-1.2,0-2.3-0.1-3.5-0.3c2.3,7.5,9.1,12.9,17.1,13.1c-6.3,5-14.2,8.1-22.8,8.1
		c-1.5,0-2.9-0.1-4.4-0.3c8.1,5.3,17.8,8.4,28.1,8.4c33.8,0,52.2-28.7,52.2-53.5c0-0.8,0-1.6,0-2.4c3.6-2.7,6.7-6,9.1-9.7
		c-3.3,1.5-6.8,2.5-10.5,3C82.7,9.5,85.6,5.8,87,1.4z"/>
</g>
<g>
	<rect x="-10.5" y="286.5" class="st0" width="173.5" height="173.5"/>
	<g>
		<path class="st1" d="M108.8,373.3c-18.1-9.6-35.3-18.5-53-27.8v55.4C74.3,390.8,93.9,381.6,108.8,373.3L108.8,373.3L108.8,373.3z"
			/>
		<path class="st2" d="M108.8,373.3c-18.1-9.6-53-27.8-53-27.8l46.6,31.3C102.4,376.9,93.9,381.6,108.8,373.3L108.8,373.3z"/>
	</g>
</g>
</svg>
